<svg width="31" height="18" viewBox="0 0 31 18" fill="none" xmlns="http://www.w3.org/2000/svg">
<g clip-path="url(#clip0_8414_806)">
<path d="M15.5065 17.9981C10.8924 17.9981 6.2791 17.9988 1.66669 18.0001C0.961681 18.0001 0.446272 17.688 0.135554 17.0105C0.0529625 16.8277 0.0102902 16.6274 0.0107511 16.4245C0.00854218 15.5665 0.0140644 14.7082 0.00706959 13.8506C0.00706959 13.6387 0.117514 13.5888 0.275082 13.5586C1.05814 13.4088 1.63723 12.9454 1.96194 12.183C2.1092 11.8379 2.30322 11.6296 2.60952 11.4441C3.46436 10.9261 3.85865 10.089 3.84503 9.05375C3.82883 7.84206 3.27439 6.98213 2.25057 6.46688C2.21267 6.44963 2.17914 6.42304 2.15271 6.38929C2.12629 6.35555 2.10772 6.3156 2.09853 6.27273C1.83051 5.38646 1.34713 4.71675 0.461734 4.46483C0.397308 4.44675 0.332145 4.41373 0.267719 4.41531C0.0560334 4.42081 0.0125918 4.27107 0.0118555 4.10089C0.00817403 3.23624 -0.0194372 2.37159 0.0199548 1.50695C0.0619238 0.603783 0.733796 0.00442449 1.63834 0.00245938C3.74906 -0.00147084 5.85978 -0.00147084 7.9705 0.00245938C15.1104 0.000887295 22.2508 0.00128032 29.3916 0.00363845C30.2016 0.00363845 30.8226 0.543257 30.9809 1.37921C30.9949 1.46286 31.0009 1.54778 30.999 1.63271C30.999 6.53238 30.999 11.4311 30.999 16.329C30.999 17.2742 30.3363 17.9942 29.4553 17.9946C24.8051 17.997 20.1551 17.997 15.5054 17.9946L15.5065 17.9981ZM17.792 1.68341H6.43753C6.1316 1.68341 6.12718 1.68774 6.12755 2.00805C6.12755 5.2172 6.12865 8.42609 6.13086 11.6347C6.13086 13.102 6.13221 14.5693 6.13491 16.0366C6.13491 16.2032 6.15074 16.3117 6.36353 16.3117C12.8535 16.3051 19.3436 16.3033 25.8338 16.3062H29.1104C29.4284 16.3062 29.5418 16.1922 29.5555 15.8562C29.5595 15.7583 29.558 15.6597 29.558 15.5614C29.558 11.0888 29.558 6.6161 29.558 2.14325C29.558 1.76948 29.4807 1.68538 29.1284 1.68538L17.792 1.68341Z" fill="white"/>
<path d="M15.9669 7.68314C15.1121 6.99378 14.3062 6.29263 13.4966 5.59737C13.3582 5.47947 13.2238 5.35449 13.0825 5.24051C12.9985 5.1733 13.0213 5.13675 13.0957 5.08723C13.3902 4.89072 13.6763 4.67849 13.9793 4.4977C14.2035 4.36329 14.4435 4.43481 14.6725 4.51696C15.968 4.98072 17.2643 5.44174 18.5572 5.91179C18.7961 5.99865 19.0049 5.97153 19.2232 5.84694C20.2102 5.28374 21.1931 4.71111 22.193 4.17542C22.8826 3.80598 23.5843 3.90463 24.2422 4.29333C24.6607 4.53975 24.7071 5.13125 24.3743 5.52584C24.2026 5.72162 24.0006 5.88447 23.7772 6.0073C22.7515 6.60272 21.7207 7.19501 20.6976 7.79751C20.2665 8.05101 20.0394 8.48372 19.8792 8.95771C19.4237 10.305 18.9728 11.6544 18.5266 13.0058C18.4622 13.2023 18.3632 13.3238 18.1784 13.391C17.7878 13.5329 17.4027 13.6924 17.0136 13.8398C16.8376 13.9066 16.8004 13.8721 16.8343 13.6779C17.0245 12.5981 17.2155 11.5189 17.4075 10.4402C17.4638 10.1222 17.5153 9.8031 17.5761 9.44348C17.1903 9.65178 16.8343 9.8424 16.4801 10.0358C15.802 10.4052 15.1297 10.7868 14.4461 11.1441C13.6362 11.5674 12.8929 11.3748 12.2129 10.8018C11.4781 10.1792 10.7499 9.55039 10.0195 8.92627C9.8398 8.7722 9.84016 8.76906 10.0349 8.63071C10.2422 8.48097 10.452 8.33516 10.6575 8.18188C10.8552 8.03411 11.0595 8.01917 11.28 8.11625C11.9316 8.40355 12.5858 8.68259 13.2349 8.975C13.388 9.04417 13.5165 9.04732 13.6652 8.9636C14.4236 8.536 15.1857 8.11664 15.9669 7.68314Z" fill="white"/>
<path d="M23.8474 14.7327C22.8365 14.7327 21.8254 14.7327 20.8142 14.7327C20.4722 14.7327 20.251 14.5059 20.251 14.1613C20.251 13.8311 20.4859 13.5961 20.8238 13.5957C22.8582 13.5957 24.8926 13.5957 26.927 13.5957C27.2683 13.5957 27.502 13.8272 27.502 14.1593C27.502 14.4989 27.2767 14.7315 26.9358 14.7323C25.9061 14.7343 24.8768 14.7327 23.8474 14.7327Z" fill="white"/>
<path d="M24.3925 12.1022H21.9259C21.5699 12.1022 21.3552 11.8919 21.3545 11.5449C21.3538 11.1978 21.5798 10.9624 21.9284 10.9624C23.602 10.9624 25.2758 10.9624 26.9496 10.9624C27.2441 10.9624 27.465 11.175 27.4996 11.4733C27.5142 11.6075 27.4827 11.7427 27.411 11.854C27.3393 11.9653 27.2323 12.0451 27.1098 12.0786C27.0323 12.0963 26.953 12.1035 26.8738 12.1002C26.0472 12.1033 25.2201 12.104 24.3925 12.1022Z" fill="white"/>
</g>
<defs>
<clipPath id="clip0_8414_806">
<rect width="31" height="18" fill="white"/>
</clipPath>
</defs>
</svg>
