<svg width="12" height="12" viewBox="0 0 12 12" fill="none" xmlns="http://www.w3.org/2000/svg">
<path d="M10.5 2.25V4.5C10.5 4.59946 10.4605 4.69484 10.3902 4.76517C10.3198 4.83549 10.2245 4.875 10.125 4.875H7.875C7.77554 4.875 7.68016 4.83549 7.60983 4.76517C7.53951 4.69484 7.5 4.59946 7.5 4.5C7.5 4.40055 7.53951 4.30516 7.60983 4.23484C7.68016 4.16451 7.77554 4.125 7.875 4.125H9.21984L8.53406 3.43922C7.83711 2.7391 6.89085 2.34411 5.90297 2.34094H5.88188C4.90227 2.33865 3.96113 2.72207 3.26203 3.40829C3.19042 3.47514 3.09548 3.51131 2.99754 3.50906C2.89959 3.50682 2.80642 3.46633 2.73794 3.39626C2.66947 3.3262 2.63113 3.23211 2.63114 3.13414C2.63114 3.03617 2.66949 2.9421 2.73797 2.87204C3.58525 2.04394 4.72491 1.58338 5.90964 1.59032C7.09437 1.59725 8.22856 2.07111 9.06609 2.90907L9.75 3.59485V2.25C9.75 2.15055 9.78951 2.05517 9.85983 1.98484C9.93016 1.91451 10.0255 1.875 10.125 1.875C10.2245 1.875 10.3198 1.91451 10.3902 1.98484C10.4605 2.05517 10.5 2.15055 10.5 2.25ZM8.73797 8.59172C8.03195 9.28136 7.08253 9.66488 6.0956 9.65909C5.10867 9.65329 4.16381 9.25867 3.46594 8.56079L2.78016 7.875H4.125C4.22446 7.875 4.31984 7.8355 4.39016 7.76517C4.46049 7.69484 4.5 7.59946 4.5 7.5C4.5 7.40055 4.46049 7.30516 4.39016 7.23484C4.31984 7.16451 4.22446 7.125 4.125 7.125H1.875C1.77554 7.125 1.68016 7.16451 1.60984 7.23484C1.53951 7.30516 1.5 7.40055 1.5 7.5V9.75C1.5 9.84946 1.53951 9.94484 1.60984 10.0152C1.68016 10.0855 1.77554 10.125 1.875 10.125C1.97446 10.125 2.06984 10.0855 2.14016 10.0152C2.21049 9.94484 2.25 9.84946 2.25 9.75V8.40516L2.93578 9.09094C3.77213 9.9315 4.908 10.4056 6.09375 10.4091H6.11859C7.29426 10.4121 8.42378 9.95183 9.2625 9.12797C9.33098 9.05791 9.36933 8.96383 9.36933 8.86586C9.36934 8.76789 9.331 8.67381 9.26253 8.60374C9.19405 8.53368 9.10088 8.49319 9.00293 8.49094C8.90499 8.4887 8.81005 8.52487 8.73844 8.59172H8.73797Z" fill="black"/>
</svg>
