<svg width="28" height="19" viewBox="0 0 28 19" fill="none" xmlns="http://www.w3.org/2000/svg">
<path d="M27.4154 15.7308C27.4154 16.4652 27.0944 17.1696 26.5232 17.6889C25.9519 18.2082 25.1771 18.5 24.3692 18.5H3.04615C2.23826 18.5 1.46346 18.2082 0.892198 17.6889C0.320933 17.1696 0 16.4652 0 15.7308V3.26923C0 2.53479 0.320933 1.83042 0.892198 1.31109C1.46346 0.791757 2.23826 0.5 3.04615 0.5H24.3692C25.1771 0.5 25.9519 0.791757 26.5232 1.31109C27.0944 1.83042 27.4154 2.53479 27.4154 3.26923V15.7308Z" fill="#009B3A"/>
<path d="M24.9241 9.50075L13.7081 17.202L2.49219 9.50075L13.7081 1.79883L24.9241 9.50075Z" fill="#FEDF01"/>
<path d="M13.6895 13.9179C16.4056 13.9179 18.6075 11.9162 18.6075 9.447C18.6075 6.97777 16.4056 4.97607 13.6895 4.97607C10.9734 4.97607 8.77148 6.97777 8.77148 9.447C8.77148 11.9162 10.9734 13.9179 13.6895 13.9179Z" fill="#002776"/>
<path d="M9.34965 7.3448C9.09422 7.78239 8.92124 8.25578 8.83789 8.74534C11.8802 8.54457 16.0093 10.0545 17.7814 11.9265C18.0875 11.5083 18.3145 11.0403 18.4538 10.5391C16.2667 8.59511 12.4247 7.33372 9.34965 7.3448Z" fill="#CBE9D4"/>
<path d="M9.13867 9.66113H9.90021V10.3534H9.13867V9.66113ZM9.90021 11.0457H10.6617V11.7381H9.90021V11.0457Z" fill="#88C9F9"/>
<path d="M11.4229 9.66098H12.1844V10.3533H11.4229V9.66098ZM12.9459 10.3533H13.7075V11.0456H12.9459V10.3533ZM15.9921 11.7379H16.7536V12.4302H15.9921V11.7379ZM13.7075 12.4302H14.469V13.1225H13.7075V12.4302ZM15.9921 8.27637H16.7536V8.96867H15.9921V8.27637Z" fill="#55ACEE"/>
<path d="M14.4697 11.0459H15.2313V11.7382H14.4697V11.0459Z" fill="#3B88C3"/>
</svg>
