<svg width="33" height="32" viewBox="0 0 33 32" fill="none" xmlns="http://www.w3.org/2000/svg">
<path d="M16.5 3.14286C23.601 3.14286 29.3571 8.899 29.3571 16C29.3571 23.101 23.601 28.8571 16.5 28.8571C9.399 28.8571 3.64286 23.101 3.64286 16C3.64286 8.899 9.399 3.14286 16.5 3.14286ZM16.5 1C8.229 1 1.5 7.729 1.5 16C1.5 24.271 8.229 31 16.5 31C24.771 31 31.5 24.271 31.5 16C31.5 7.729 24.771 1 16.5 1Z" fill="white"/>
<path d="M21.6429 15.5709C22.8263 15.5709 23.7857 14.6115 23.7857 13.428C23.7857 12.2445 22.8263 11.2852 21.6429 11.2852C20.4594 11.2852 19.5 12.2445 19.5 13.428C19.5 14.6115 20.4594 15.5709 21.6429 15.5709Z" fill="white"/>
<path d="M11.3577 15.5709C12.5412 15.5709 13.5006 14.6115 13.5006 13.428C13.5006 12.2445 12.5412 11.2852 11.3577 11.2852C10.1742 11.2852 9.21484 12.2445 9.21484 13.428C9.21484 14.6115 10.1742 15.5709 11.3577 15.5709Z" fill="white"/>
<path d="M16.5001 24.4983C13.8031 24.4983 11.2051 23.5156 9.18435 21.7315C8.74121 21.3398 8.69878 20.6626 9.09049 20.219C9.48178 19.7763 10.1594 19.733 10.6029 20.1252C12.2315 21.563 14.3259 22.3555 16.5001 22.3555C18.6742 22.3555 20.7686 21.563 22.3972 20.1252C22.8408 19.733 23.5175 19.7763 23.9096 20.219C24.3014 20.6626 24.2589 21.3398 23.8158 21.7315C21.7955 23.5156 19.1971 24.4983 16.5001 24.4983Z" fill="white"/>
</svg>
