<svg width="16" height="12" viewBox="0 0 16 12" fill="none" xmlns="http://www.w3.org/2000/svg">
<g clip-path="url(#clip0_10020_279)">
<rect width="16" height="12" rx="1.33333" fill="white"/>
<path fill-rule="evenodd" clip-rule="evenodd" d="M0 0H16V12H0V0Z" fill="#E31D1C"/>
<path d="M16 11V12H0V11H16ZM16 10H0V9H16V10ZM16 8H0V7H16V8ZM16 6H0V5H16V6ZM16 4H0V3H16V4ZM16 2H0V1H16V2Z" fill="#F7FCFF"/>
<rect width="9" height="7" fill="#2E42A5"/>
<path d="M1.27637 4.98861H1.57617L1.33984 5.22884L1.43164 5.60775L1.1377 5.39486L0.833984 5.60775L0.936523 5.22884L0.666992 4.98861H1.01953L1.1377 4.68002L1.27637 4.98861ZM2.94922 4.98861H3.24902L3.01367 5.22884L3.10449 5.60775L2.81152 5.39486L2.50781 5.60775L2.61035 5.22884L2.33984 4.98861H2.69238L2.81055 4.68002L2.94922 4.98861ZM4.62207 4.98861H4.92285L4.68652 5.22884L4.77832 5.60775L4.48438 5.39486L4.18066 5.60775L4.2832 5.22884L4.01367 4.98861H4.36621L4.48438 4.68002L4.62207 4.98861ZM6.2959 4.98861H6.5957L6.36035 5.22884L6.45117 5.60775L6.1582 5.39486L5.85449 5.60775L5.95703 5.22884L5.68652 4.98861H6.03906L6.15723 4.68002L6.2959 4.98861ZM7.96875 4.98861H8.26953L8.0332 5.22884L8.125 5.60775L7.83105 5.39486L7.52734 5.60775L7.62988 5.22884L7.36035 4.98861H7.71289L7.83105 4.68002L7.96875 4.98861ZM2.1123 4.15267H2.41309L2.17676 4.39291L2.26855 4.77084L1.97461 4.55795L1.6709 4.77084L1.77344 4.39291L1.50391 4.15267H1.85547L1.97363 3.8431L2.1123 4.15267ZM3.78613 4.15267H4.08594L3.85059 4.39291L3.94141 4.77084L3.64746 4.55795L3.34375 4.77084L3.44629 4.39291L3.17676 4.15267H3.5293L3.64746 3.8431L3.78613 4.15267ZM5.45898 4.15267H5.75977L5.52344 4.39291L5.61523 4.77084L5.32129 4.55795L5.01758 4.77084L5.12012 4.39291L4.85059 4.15267H5.20215L5.32031 3.8431L5.45898 4.15267ZM7.13281 4.15267H7.43262L7.19727 4.39291L7.28809 4.77084L6.99414 4.55795L6.69043 4.77084L6.79297 4.39291L6.52344 4.15267H6.87598L6.99414 3.8431L7.13281 4.15267ZM1.27637 3.31576H1.57617L1.33984 3.55599L1.43164 3.9349L1.1377 3.72201L0.833984 3.9349L0.936523 3.55599L0.666992 3.31576H1.01953L1.1377 3.00619L1.27637 3.31576ZM2.94922 3.31576H3.24902L3.01367 3.55599L3.10449 3.9349L2.81152 3.72201L2.50781 3.9349L2.61035 3.55599L2.33984 3.31576H2.69238L2.81055 3.00619L2.94922 3.31576ZM4.62207 3.31576H4.92285L4.68652 3.55599L4.77832 3.9349L4.48438 3.72201L4.18066 3.9349L4.2832 3.55599L4.01367 3.31576H4.36621L4.48438 3.00619L4.62207 3.31576ZM6.2959 3.31576H6.5957L6.36035 3.55599L6.45117 3.9349L6.1582 3.72201L5.85449 3.9349L5.95703 3.55599L5.68652 3.31576H6.03906L6.15723 3.00619L6.2959 3.31576ZM7.96875 3.31576H8.26953L8.0332 3.55599L8.125 3.9349L7.83105 3.72201L7.52734 3.9349L7.62988 3.55599L7.36035 3.31576H7.71289L7.83105 3.00619L7.96875 3.31576ZM2.1123 2.47884H2.41309L2.17676 2.71908L2.26855 3.09798L1.97461 2.88509L1.6709 3.09798L1.77344 2.71908L1.50391 2.47884H1.85547L1.97363 2.17025L2.1123 2.47884ZM3.78613 2.47884H4.08594L3.85059 2.71908L3.94141 3.09798L3.64746 2.88509L3.34375 3.09798L3.44629 2.71908L3.17676 2.47884H3.5293L3.64746 2.17025L3.78613 2.47884ZM5.45898 2.47884H5.75977L5.52344 2.71908L5.61523 3.09798L5.32129 2.88509L5.01758 3.09798L5.12012 2.71908L4.85059 2.47884H5.20215L5.32031 2.17025L5.45898 2.47884ZM7.13281 2.47884H7.43262L7.19727 2.71908L7.28809 3.09798L6.99414 2.88509L6.69043 3.09798L6.79297 2.71908L6.52344 2.47884H6.87598L6.99414 2.17025L7.13281 2.47884ZM1.27637 1.64291H1.57617L1.33984 1.88216L1.43164 2.26107L1.1377 2.04818L0.833984 2.26107L0.936523 1.88216L0.666992 1.64291H1.01953L1.1377 1.33334L1.27637 1.64291ZM2.94922 1.64193H3.24902L3.01367 1.88216L3.10449 2.26107L2.81152 2.04818L2.50781 2.26107L2.61035 1.88216L2.33984 1.64193H2.69238L2.81055 1.33334L2.94922 1.64193ZM4.62207 1.64193H4.92285L4.68652 1.88216L4.77832 2.26107L4.48438 2.04818L4.18066 2.26107L4.2832 1.88216L4.01367 1.64193H4.36621L4.48438 1.33334L4.62207 1.64193ZM6.2959 1.64193H6.5957L6.36035 1.88216L6.45117 2.26107L6.1582 2.04818L5.85449 2.26107L5.95703 1.88216L5.68652 1.64193H6.03906L6.15723 1.33334L6.2959 1.64193ZM7.96875 1.64193H8.26953L8.0332 1.88216L8.125 2.26107L7.83105 2.04818L7.52734 2.26107L7.62988 1.88216L7.36035 1.64193H7.71289L7.83105 1.33334L7.96875 1.64193Z" fill="#F7FCFF"/>
</g>
<defs>
<clipPath id="clip0_10020_279">
<rect width="16" height="12" rx="1.33333" fill="white"/>
</clipPath>
</defs>
</svg>
