<svg width="32" height="32" viewBox="0 0 32 32" fill="none" xmlns="http://www.w3.org/2000/svg">
<path d="M10.6663 4C11.333 4 13.9997 10 13.9997 10.6667C13.9997 12 11.9997 13.3333 11.333 14.6667C10.6663 16 11.9997 17.3333 13.333 18.6667C13.853 19.1867 15.9997 21.3333 17.333 20.6667C18.6663 20 19.9997 18 21.333 18C21.9997 18 27.9997 20.6667 27.9997 21.3333C27.9997 24 25.9997 26 23.9997 26.6667C21.9997 27.3333 20.6663 27.3333 17.9997 26.6667C15.333 26 13.333 25.3333 9.99967 22C6.66634 18.6667 5.99967 16.6667 5.33301 14C4.66634 11.3333 4.66634 10 5.33301 8C5.99967 6 7.99967 4 10.6663 4Z" stroke="white" stroke-width="2.54545" stroke-linecap="round" stroke-linejoin="round"/>
</svg>
