<svg width="27" height="19" viewBox="0 0 27 19" fill="none" xmlns="http://www.w3.org/2000/svg">
<path d="M0 12.4995V16.0138C0 17.4709 1.15714 18.4995 2.57141 18.4995H23.9998C25.4141 18.4995 26.5713 17.4709 26.5713 16.0138V12.4995H0Z" fill="#4C4B4B"/>
<path d="M23.9998 0.5H2.57141C1.15714 0.5 0 1.52857 0 2.98571V6.5H26.5713V2.98571C26.5713 1.52857 25.4141 0.5 23.9998 0.5Z" fill="#49A948"/>
<path d="M26.5713 6.50049H0V12.5005H26.5713V6.50049Z" fill="white"/>
<path d="M23.9143 18.4995C25.3285 18.4995 26.5714 17.4709 26.5714 16.0138V12.4995H16.8857L23.9143 18.4995Z" fill="#3F3F3F"/>
<path d="M24.0007 0.5H2.57227L9.68651 6.5H26.5721V2.98571C26.5721 1.52857 25.415 0.5 24.0007 0.5Z" fill="#369933"/>
<path d="M16.9282 12.5005H26.571V6.50049H9.64258L16.9282 12.5005Z" fill="#CFE5E2"/>
<path d="M24.0007 0.5H2.57227L22.415 6.5H26.5721V2.98571C26.5721 1.52857 25.415 0.5 24.0007 0.5Z" fill="#1C8417"/>
<path d="M26.5716 7.70049V6.50049H22.2002L26.5716 7.70049Z" fill="#BAD3CF"/>
<path d="M26.5713 15.9711C26.5713 17.5139 25.4141 18.4997 23.9998 18.4997H2.57141C1.15714 18.4997 0 17.3854 0 15.9282" fill="#232222"/>
<path d="M6.42853 0.5H2.57141C1.15714 0.5 0 1.52857 0 2.98571V6.41429V6.45714V12.5857V12.6286V16.0571C0 17.4714 1.15714 18.5 2.57141 18.5H6.42853V0.5Z" fill="#E73B36"/>
<path d="M6.42853 6.49989H0V6.45703V12.5427V12.4999H6.42853V6.49989Z" fill="#DB2C2C"/>
<path d="M0 12.4995V12.6281V16.0567C0 17.4709 1.15714 18.4995 2.57141 18.4995H6.42853V12.4995H0Z" fill="#CC2525"/>
<path d="M0 15.9282C0 17.6425 1.15714 18.4997 2.57141 18.4997H6.42853V15.9282H0Z" fill="#B70808"/>
<path d="M6.42938 0.5H2.57227L6.42938 3.75714V0.5Z" fill="#CC2525"/>
<path d="M6.42938 0.5H2.57227L6.42938 1.57143V0.5Z" fill="#B70808"/>
</svg>
