<svg width="33" height="32" viewBox="0 0 33 32" fill="none" xmlns="http://www.w3.org/2000/svg">
<path d="M16.9361 31C13.1834 30.9975 9.48905 30.0659 6.18412 28.2872C5.8035 28.0832 5.5572 27.6963 5.53109 27.266C5.2251 22.2148 7.18913 18.0253 10.9182 15.7715C12.7392 14.6869 14.8189 14.1147 16.9371 14.1159C19.0566 14.1159 21.1365 14.6893 22.9559 15.774C26.685 18.0291 28.6465 22.217 28.3405 27.2659C28.3144 27.6963 28.0681 28.0831 27.6887 28.2871C24.3838 30.0658 20.6885 30.9975 16.9355 30.9999L16.9361 31ZM7.98768 26.4188C13.6273 29.2088 20.2458 29.2088 25.8841 26.4176C26.2423 13.3784 7.6269 13.3832 7.98768 26.4188ZM16.9361 13.5089C15.2705 13.525 13.6697 12.867 12.4969 11.6854C11.3239 10.5037 10.6784 8.8979 10.7058 7.23378C10.7767 -0.812826 22.7798 -1.33886 23.2113 7.23378C23.2088 8.89681 22.5471 10.4925 21.3704 11.6682C20.1949 12.8448 18.5992 13.5064 16.9361 13.5089ZM16.9547 3.44601C15.9497 3.44726 14.9857 3.84901 14.2767 4.5605C13.5677 5.27323 13.1697 6.23844 13.1734 7.24349C13.1759 8.2485 13.5777 9.21126 14.2904 9.92023C15.0031 10.6292 15.9696 11.0248 16.9746 11.021C19.0643 11.0136 20.7534 9.31446 20.7473 7.22349C20.7423 5.13382 19.0443 3.44346 16.9547 3.44601Z" fill="white"/>
</svg>
